<mxfile host="app.diagrams.net" modified="2020-03-24T06:37:50.808Z" agent="Mozilla/5.0 (Windows NT 10.0; Win64; x64) AppleWebKit/537.36 (KHTML, like Gecko) Chrome/80.0.3987.132 Safari/537.36" etag="DYXgjhcJh76P19utVwyP" version="12.8.8" type="github">
  <diagram id="Tm1smeWes5d822DkygWX" name="Page-1">
    <mxGraphModel dx="1185" dy="606" grid="1" gridSize="10" guides="1" tooltips="1" connect="1" arrows="1" fold="1" page="1" pageScale="1" pageWidth="827" pageHeight="1169" math="0" shadow="0">
      <root>
        <mxCell id="0" />
        <mxCell id="1" parent="0" />
        <mxCell id="a0HzyYqrZyOWF7hGiMin-46" value="" style="edgeStyle=orthogonalEdgeStyle;rounded=0;orthogonalLoop=1;jettySize=auto;html=1;" edge="1" parent="1" source="a0HzyYqrZyOWF7hGiMin-1" target="a0HzyYqrZyOWF7hGiMin-45">
          <mxGeometry relative="1" as="geometry" />
        </mxCell>
        <mxCell id="a0HzyYqrZyOWF7hGiMin-1" value="项目申报" style="rounded=1;whiteSpace=wrap;html=1;" vertex="1" parent="1">
          <mxGeometry x="40" y="140" width="120" height="60" as="geometry" />
        </mxCell>
        <mxCell id="a0HzyYqrZyOWF7hGiMin-48" value="" style="edgeStyle=orthogonalEdgeStyle;rounded=0;orthogonalLoop=1;jettySize=auto;html=1;" edge="1" parent="1" source="a0HzyYqrZyOWF7hGiMin-45" target="a0HzyYqrZyOWF7hGiMin-41">
          <mxGeometry relative="1" as="geometry" />
        </mxCell>
        <mxCell id="a0HzyYqrZyOWF7hGiMin-45" value="工程预算" style="rounded=1;whiteSpace=wrap;html=1;" vertex="1" parent="1">
          <mxGeometry x="220" y="140" width="120" height="60" as="geometry" />
        </mxCell>
        <mxCell id="a0HzyYqrZyOWF7hGiMin-2" value="1.主管单位申报&lt;br&gt;2.股室审批（支出预算审核）&lt;br&gt;3.审批完成" style="text;html=1;strokeColor=none;fillColor=none;align=left;verticalAlign=middle;whiteSpace=wrap;rounded=0;" vertex="1" parent="1">
          <mxGeometry x="40" y="180" width="190" height="110" as="geometry" />
        </mxCell>
        <mxCell id="a0HzyYqrZyOWF7hGiMin-68" value="" style="edgeStyle=orthogonalEdgeStyle;rounded=0;orthogonalLoop=1;jettySize=auto;html=1;" edge="1" parent="1" source="a0HzyYqrZyOWF7hGiMin-10" target="a0HzyYqrZyOWF7hGiMin-66">
          <mxGeometry relative="1" as="geometry" />
        </mxCell>
        <mxCell id="a0HzyYqrZyOWF7hGiMin-10" value="项目申报" style="rounded=1;whiteSpace=wrap;html=1;" vertex="1" parent="1">
          <mxGeometry x="30" y="320" width="120" height="60" as="geometry" />
        </mxCell>
        <mxCell id="a0HzyYqrZyOWF7hGiMin-17" value="小于20万" style="text;html=1;strokeColor=none;fillColor=none;align=center;verticalAlign=middle;whiteSpace=wrap;rounded=0;" vertex="1" parent="1">
          <mxGeometry x="40" y="100" width="90" height="20" as="geometry" />
        </mxCell>
        <mxCell id="a0HzyYqrZyOWF7hGiMin-18" value="大于20万" style="text;html=1;strokeColor=none;fillColor=none;align=center;verticalAlign=middle;whiteSpace=wrap;rounded=0;" vertex="1" parent="1">
          <mxGeometry x="45" y="280" width="90" height="20" as="geometry" />
        </mxCell>
        <mxCell id="a0HzyYqrZyOWF7hGiMin-37" value="1.主管单位申报&lt;br&gt;2.股室审批（支出预算审核）&lt;br&gt;3.审批完成" style="text;html=1;strokeColor=none;fillColor=none;align=left;verticalAlign=middle;whiteSpace=wrap;rounded=0;" vertex="1" parent="1">
          <mxGeometry x="30" y="360" width="190" height="110" as="geometry" />
        </mxCell>
        <mxCell id="a0HzyYqrZyOWF7hGiMin-40" value="" style="edgeStyle=orthogonalEdgeStyle;rounded=0;orthogonalLoop=1;jettySize=auto;html=1;" edge="1" parent="1" source="a0HzyYqrZyOWF7hGiMin-41" target="a0HzyYqrZyOWF7hGiMin-42">
          <mxGeometry relative="1" as="geometry" />
        </mxCell>
        <mxCell id="a0HzyYqrZyOWF7hGiMin-41" value="项目执行支出管理" style="rounded=1;whiteSpace=wrap;html=1;" vertex="1" parent="1">
          <mxGeometry x="390" y="140" width="120" height="60" as="geometry" />
        </mxCell>
        <mxCell id="a0HzyYqrZyOWF7hGiMin-53" value="" style="edgeStyle=orthogonalEdgeStyle;rounded=0;orthogonalLoop=1;jettySize=auto;html=1;" edge="1" parent="1" source="a0HzyYqrZyOWF7hGiMin-42" target="a0HzyYqrZyOWF7hGiMin-52">
          <mxGeometry relative="1" as="geometry" />
        </mxCell>
        <mxCell id="a0HzyYqrZyOWF7hGiMin-42" value="工程结算" style="rounded=1;whiteSpace=wrap;html=1;" vertex="1" parent="1">
          <mxGeometry x="580" y="140" width="120" height="60" as="geometry" />
        </mxCell>
        <mxCell id="a0HzyYqrZyOWF7hGiMin-52" value="项目结项" style="rounded=1;whiteSpace=wrap;html=1;" vertex="1" parent="1">
          <mxGeometry x="780" y="140" width="120" height="60" as="geometry" />
        </mxCell>
        <mxCell id="a0HzyYqrZyOWF7hGiMin-44" value="1.入执行库&lt;br&gt;1.项目支出申请&lt;br&gt;2.项目支出完成" style="text;html=1;strokeColor=none;fillColor=none;align=left;verticalAlign=middle;whiteSpace=wrap;rounded=0;" vertex="1" parent="1">
          <mxGeometry x="390" y="180" width="190" height="110" as="geometry" />
        </mxCell>
        <mxCell id="a0HzyYqrZyOWF7hGiMin-51" value="1.结项申请&lt;br&gt;2.股室审批&lt;br&gt;3.审批完成" style="text;html=1;strokeColor=none;fillColor=none;align=left;verticalAlign=middle;whiteSpace=wrap;rounded=0;" vertex="1" parent="1">
          <mxGeometry x="810" y="180" width="180" height="110" as="geometry" />
        </mxCell>
        <mxCell id="a0HzyYqrZyOWF7hGiMin-54" value="1.单位提交&lt;br&gt;2.安排审核中&lt;br&gt;3.领导审批/归档" style="text;html=1;strokeColor=none;fillColor=none;align=left;verticalAlign=middle;whiteSpace=wrap;rounded=0;" vertex="1" parent="1">
          <mxGeometry x="220" y="170" width="190" height="110" as="geometry" />
        </mxCell>
        <mxCell id="a0HzyYqrZyOWF7hGiMin-55" value="1.单位提交&lt;br&gt;2.安排审核中&lt;br&gt;3.领导审批/归档" style="text;html=1;strokeColor=none;fillColor=none;align=left;verticalAlign=middle;whiteSpace=wrap;rounded=0;" vertex="1" parent="1">
          <mxGeometry x="585" y="170" width="190" height="110" as="geometry" />
        </mxCell>
        <mxCell id="a0HzyYqrZyOWF7hGiMin-56" value="" style="edgeStyle=orthogonalEdgeStyle;rounded=0;orthogonalLoop=1;jettySize=auto;html=1;" edge="1" parent="1" target="a0HzyYqrZyOWF7hGiMin-58">
          <mxGeometry relative="1" as="geometry">
            <mxPoint x="900" y="350.0000000000001" as="sourcePoint" />
          </mxGeometry>
        </mxCell>
        <mxCell id="a0HzyYqrZyOWF7hGiMin-58" value="绩效管理" style="rounded=1;whiteSpace=wrap;html=1;" vertex="1" parent="1">
          <mxGeometry x="980" y="320" width="120" height="60" as="geometry" />
        </mxCell>
        <mxCell id="a0HzyYqrZyOWF7hGiMin-59" value="项目结项" style="rounded=1;whiteSpace=wrap;html=1;" vertex="1" parent="1">
          <mxGeometry x="780" y="320" width="120" height="60" as="geometry" />
        </mxCell>
        <mxCell id="a0HzyYqrZyOWF7hGiMin-60" value="1.结项申请&lt;br&gt;2.股室审批&lt;br&gt;3.审批完成" style="text;html=1;strokeColor=none;fillColor=none;align=left;verticalAlign=middle;whiteSpace=wrap;rounded=0;" vertex="1" parent="1">
          <mxGeometry x="790" y="370" width="180" height="110" as="geometry" />
        </mxCell>
        <mxCell id="a0HzyYqrZyOWF7hGiMin-61" value="1.绩效股发出申请&lt;br&gt;2.单位填写资料&lt;br&gt;3.绩效股审核&lt;br&gt;4.审核完成" style="text;html=1;strokeColor=none;fillColor=none;align=left;verticalAlign=middle;whiteSpace=wrap;rounded=0;" vertex="1" parent="1">
          <mxGeometry x="980" y="360" width="180" height="110" as="geometry" />
        </mxCell>
        <mxCell id="a0HzyYqrZyOWF7hGiMin-72" value="" style="edgeStyle=orthogonalEdgeStyle;rounded=0;orthogonalLoop=1;jettySize=auto;html=1;" edge="1" parent="1" source="a0HzyYqrZyOWF7hGiMin-63" target="a0HzyYqrZyOWF7hGiMin-70">
          <mxGeometry relative="1" as="geometry" />
        </mxCell>
        <mxCell id="a0HzyYqrZyOWF7hGiMin-63" value="项目执行支出管理" style="rounded=1;whiteSpace=wrap;html=1;" vertex="1" parent="1">
          <mxGeometry x="390" y="320" width="120" height="60" as="geometry" />
        </mxCell>
        <mxCell id="a0HzyYqrZyOWF7hGiMin-64" value="1.入执行库&lt;br&gt;1.项目支出申请&lt;br&gt;2.项目支出完成" style="text;html=1;strokeColor=none;fillColor=none;align=left;verticalAlign=middle;whiteSpace=wrap;rounded=0;" vertex="1" parent="1">
          <mxGeometry x="390" y="360" width="190" height="110" as="geometry" />
        </mxCell>
        <mxCell id="a0HzyYqrZyOWF7hGiMin-69" value="" style="edgeStyle=orthogonalEdgeStyle;rounded=0;orthogonalLoop=1;jettySize=auto;html=1;" edge="1" parent="1" source="a0HzyYqrZyOWF7hGiMin-66" target="a0HzyYqrZyOWF7hGiMin-63">
          <mxGeometry relative="1" as="geometry" />
        </mxCell>
        <mxCell id="a0HzyYqrZyOWF7hGiMin-66" value="工程预算" style="rounded=1;whiteSpace=wrap;html=1;" vertex="1" parent="1">
          <mxGeometry x="210" y="320" width="120" height="60" as="geometry" />
        </mxCell>
        <mxCell id="a0HzyYqrZyOWF7hGiMin-67" value="1.单位提交&lt;br&gt;2.安排审核中&lt;br&gt;3.领导审批/归档" style="text;html=1;strokeColor=none;fillColor=none;align=left;verticalAlign=middle;whiteSpace=wrap;rounded=0;" vertex="1" parent="1">
          <mxGeometry x="210" y="360" width="190" height="110" as="geometry" />
        </mxCell>
        <mxCell id="a0HzyYqrZyOWF7hGiMin-73" value="" style="edgeStyle=orthogonalEdgeStyle;rounded=0;orthogonalLoop=1;jettySize=auto;html=1;" edge="1" parent="1" source="a0HzyYqrZyOWF7hGiMin-70" target="a0HzyYqrZyOWF7hGiMin-59">
          <mxGeometry relative="1" as="geometry" />
        </mxCell>
        <mxCell id="a0HzyYqrZyOWF7hGiMin-70" value="工程结算" style="rounded=1;whiteSpace=wrap;html=1;" vertex="1" parent="1">
          <mxGeometry x="580" y="320" width="120" height="60" as="geometry" />
        </mxCell>
        <mxCell id="a0HzyYqrZyOWF7hGiMin-71" value="1.单位提交&lt;br&gt;2.安排审核中&lt;br&gt;3.领导审批/归档" style="text;html=1;strokeColor=none;fillColor=none;align=left;verticalAlign=middle;whiteSpace=wrap;rounded=0;" vertex="1" parent="1">
          <mxGeometry x="585" y="370" width="190" height="110" as="geometry" />
        </mxCell>
      </root>
    </mxGraphModel>
  </diagram>
</mxfile>
